# xmcd
#
# Track frame offsets: 
#        150
#        13240
#        28225
#        48532
#        61307
#        73082
#        87760
#        106015
#        118470
#        131887
#
# Disc length: 1966 seconds
#
# Revision: 3
# Processed by: cddbd v1.5.1PL0 Copyright (c) Steve Scherf et al.
# Submitted via: ExactAudioCopy v0.95a5
#
DISCID=9207ac0a
DTITLE=Rosanne Cash - Seven Year Ache
DYEAR=1981
DGENRE=Country
TTITLE0=Rainin'
TTITLE1=Seven Year Ache
TTITLE2=Blue Moon with Heartache
TTITLE3=What Kinda Girl?
TTITLE4=You Don't Have Very Far To Go
TTITLE5=My Baby Thinks He's A Train
TTITLE6=Only Human
TTITLE7=Where Will The Words Come From?
TTITLE8=Hometown Blues
TTITLE9=I Can't Resist
EXTD=Produced by Rodney Crowell\nDigitally mastered - analog recording
EXTT0=
EXTT1=
EXTT2=
EXTT3=
EXTT4=
EXTT5=
EXTT6=
EXTT7=
EXTT8=
EXTT9=
PLAYORDER=
